<?xml version="1.0" standalone="no"?>
<!DOCTYPE svg PUBLIC "-//W3C//DTD SVG 20010904//EN"
 "http://www.w3.org/TR/2001/REC-SVG-20010904/DTD/svg10.dtd">
<svg version="1.0" xmlns="http://www.w3.org/2000/svg"
 width="934.000000pt" height="934.000000pt" viewBox="0 0 934.000000 934.000000"
 preserveAspectRatio="xMidYMid meet">
<metadata>
Created by potrace 1.11, written by Peter Selinger 2001-2013
</metadata>
<g transform="translate(0.000000,934.000000) scale(0.100000,-0.100000)"
fill="#000000" stroke="none">
<path d="M2833 9110 c-24 -11 -63 -40 -87 -64 -85 -88 -127 -185 -146 -338
-10 -80 -9 -110 4 -197 16 -101 40 -215 52 -245 5 -13 -13 -16 -132 -18 l-138
-3 -41 -70 c-23 -38 -53 -90 -67 -115 -29 -51 -78 -138 -288 -500 -81 -140
-239 -412 -350 -605 -111 -192 -219 -379 -240 -415 -21 -36 -112 -193 -202
-350 -422 -730 -543 -940 -578 -1000 -56 -97 -356 -616 -439 -761 -72 -126
-72 -127 -57 -157 14 -26 166 -293 284 -497 19 -33 46 -80 60 -105 14 -25 45
-78 69 -118 24 -41 43 -76 43 -79 0 -3 8 -17 19 -31 10 -15 29 -47 43 -72 30
-54 64 -112 188 -325 51 -88 104 -180 117 -205 14 -25 29 -49 33 -55 4 -5 17
-26 27 -45 11 -19 32 -57 47 -85 16 -27 32 -54 36 -60 4 -5 19 -30 32 -55 14
-25 42 -74 63 -110 21 -36 46 -81 57 -100 11 -19 37 -64 58 -100 21 -36 47
-81 58 -100 18 -33 33 -58 128 -222 20 -35 47 -81 59 -103 13 -22 84 -145 159
-274 75 -129 136 -236 136 -238 0 -3 8 -17 19 -31 10 -15 29 -47 43 -72 14
-25 41 -72 60 -105 19 -33 88 -152 153 -265 65 -113 134 -232 153 -265 19 -33
43 -74 53 -92 54 -94 70 -113 94 -113 14 0 25 -4 25 -10 0 -7 750 -10 2230
-10 1480 0 2230 3 2230 10 0 6 11 10 25 10 24 0 40 19 94 113 10 18 34 59 53
92 19 33 88 152 153 265 65 113 134 232 153 265 19 33 46 80 60 105 14 25 33
57 43 72 11 14 19 28 19 31 0 2 61 109 136 238 75 129 146 252 159 274 12 22
39 68 59 103 95 164 110 189 128 222 11 19 37 64 58 100 21 36 47 81 58 100
11 19 36 64 57 100 21 36 49 85 63 110 13 25 28 50 32 55 4 6 20 33 36 60 15
28 36 66 47 85 10 19 23 40 27 45 4 6 19 30 33 55 13 25 66 117 117 205 124
213 158 271 188 325 14 25 33 57 43 72 11 14 19 28 19 31 0 3 19 38 43 79 24
40 55 93 69 118 14 25 41 72 60 105 118 204 270 471 284 497 18 34 41 -10
-291 563 -90 154 -172 296 -182 315 -24 43 -89 154 -286 495 -83 143 -224 388
-315 545 -90 157 -181 314 -202 350 -21 36 -113 196 -205 355 -92 160 -178
308 -191 330 l-23 40 45 65 c88 125 192 370 246 580 59 226 46 443 -36 614
-62 128 -144 203 -247 226 -55 12 -149 3 -334 -32 -27 -5 -237 -13 -465 -17
-389 -7 -419 -9 -485 -30 -38 -12 -79 -25 -90 -28 -13 -4 -4 11 28 45 86 93
88 137 5 109 -81 -28 -210 -47 -443 -67 -126 -11 -282 -27 -345 -36 -183 -26
-220 -30 -220 -27 0 2 9 21 19 41 39 76 48 152 18 152 -5 0 -45 -27 -89 -60
-43 -33 -78 -58 -78 -55 0 3 15 35 34 72 53 103 52 103 -154 11 -144 -65 -652
-270 -655 -266 -1 2 -7 28 -13 58 -16 71 -73 186 -117 236 -34 38 -35 38 -50
20 -8 -11 -15 -34 -16 -50 -1 -17 -4 -41 -7 -54 l-7 -22 -35 24 c-149 101
-319 164 -575 215 -94 19 -172 39 -290 75 -241 72 -265 76 -332 46z m127 -39
c0 -5 -15 -18 -32 -30 -82 -50 -164 -168 -200 -285 -19 -64 -20 -81 -12 -230
10 -188 12 -366 4 -366 -8 0 -46 183 -66 315 -28 182 -8 337 56 450 33 57 103
129 140 144 32 12 110 14 110 2z m908 -758 c-7 -9 -58 -50 -113 -91 -233 -176
-445 -359 -445 -385 0 -6 -57 -68 -127 -139 -141 -142 -252 -283 -301 -383
-32 -63 -41 -71 -99 -89 -34 -11 -30 16 17 113 69 142 264 406 381 516 173
162 395 336 514 401 132 73 207 98 173 57z m-1178 -631 c0 -3 -28 -36 -62 -75
-52 -58 -63 -77 -69 -121 -9 -58 -35 -86 -79 -86 -51 0 -81 50 -60 101 10 23
23 32 66 45 46 13 63 26 115 84 37 41 67 66 75 63 8 -3 14 -8 14 -11z m94
-289 c-10 -15 -31 -43 -46 -61 -15 -18 -28 -45 -28 -59 0 -56 -68 -84 -105
-43 -40 44 -3 116 56 108 20 -3 39 7 80 43 30 26 55 46 57 44 2 -2 -4 -16 -14
-32z m-367 -95 c234 -218 313 -298 319 -322 3 -14 3 -26 -1 -26 -15 0 -425
405 -425 420 0 22 24 6 107 -72z m411 -150 c-3 -43 -3 -43 -41 -42 -45 2 -61
14 -53 42 7 20 44 40 79 41 15 1 18 -6 15 -41z m-441 -214 l173 -166 0 -436
c-1 -349 -4 -443 -15 -467 -7 -16 -14 -23 -15 -15 -1 8 -1 212 0 454 l1 439
-178 178 c-98 98 -180 186 -181 195 -4 15 -2 15 19 0 13 -8 101 -90 196 -182z
m340 114 c-3 -8 -6 -5 -6 6 -1 11 2 17 5 13 3 -3 4 -12 1 -19z m93 -82 c0 -52
9 -161 20 -242 11 -82 20 -165 20 -184 0 -20 7 -46 16 -59 27 -38 13 -94 -81
-328 -136 -337 -164 -393 -213 -425 l-42 -27 6 27 c16 65 53 152 155 363 148
304 152 324 116 561 -15 95 -29 211 -32 258 -3 47 -8 100 -11 118 -4 29 -3 32
21 32 l25 0 0 -94z m-602 -130 l127 -124 3 -1034 3 -1033 145 -146 c129 -129
143 -147 129 -159 -14 -12 -34 4 -166 136 l-149 149 0 1034 0 1034 -120 123
c-112 114 -135 144 -110 144 6 0 68 -56 138 -124z m2832 13 c0 -104 25 -269
51 -335 23 -58 63 -104 111 -127 52 -25 54 -8 3 41 -58 57 -85 109 -92 177 -5
49 -4 52 19 57 42 8 62 -7 77 -56 16 -54 60 -106 90 -106 12 0 29 9 38 20 10
11 24 20 31 20 7 0 27 13 43 29 l29 29 0 -32 c0 -17 -7 -58 -15 -89 -18 -69
-18 -67 -4 -67 22 0 62 112 67 187 3 40 9 76 13 79 5 3 9 15 10 27 1 15 4 11
10 -13 5 -19 6 -66 3 -105 -5 -61 -11 -79 -50 -137 -57 -87 -76 -99 -171 -105
-193 -13 -332 57 -383 193 -24 65 -39 252 -26 337 8 51 12 53 99 56 l47 1 0
-81z m138 65 c45 -9 82 -21 82 -26 0 -34 -103 -118 -144 -118 -9 0 -21 12 -26
26 -12 30 -13 134 -2 134 4 0 44 -7 90 -16z m-1748 -69 c0 -10 -77 -109 -104
-134 -14 -14 -29 -21 -33 -18 -8 9 -10 103 -2 111 8 9 111 45 127 46 6 0 12
-2 12 -5z m-192 -123 c6 -147 133 -362 215 -362 27 0 20 14 -24 49 -38 31
-100 134 -87 146 3 4 14 2 25 -4 28 -15 114 -51 124 -51 5 0 18 9 29 20 l20
20 2 -32 c5 -103 6 -110 18 -103 19 12 10 -13 -15 -43 -47 -56 -181 -70 -264
-27 -92 46 -140 129 -149 258 -6 95 9 132 66 165 20 12 37 22 37 22 1 0 2 -26
3 -58z m-993 -232 c28 -31 24 -84 -8 -118 -27 -28 -27 -29 -27 -177 l0 -148
-147 -149 -147 -148 -256 1 c-234 0 -309 6 -284 21 5 4 126 9 269 13 l260 7
133 131 132 132 0 142 0 142 -30 31 c-36 37 -41 89 -10 120 27 27 90 27 115 0z
m5294 -53 c1 -20 8 -31 29 -39 l27 -12 -28 -4 c-16 -2 -35 -1 -43 2 -15 6 -18
53 -7 95 6 23 7 23 14 5 4 -10 8 -31 8 -47z m-5550 -193 c12 -15 21 -33 21
-41 0 -24 -47 -63 -76 -63 -19 0 -44 -16 -85 -55 l-58 -55 -113 1 c-195 1
-202 27 -10 36 l117 5 48 46 c37 37 47 53 47 79 0 67 70 97 109 47z m6075
-721 c44 -47 61 -73 67 -105 4 -24 8 -178 9 -343 l0 -299 93 -91 c225 -220
232 -225 275 -225 29 0 49 -7 70 -25 75 -63 34 -167 -65 -167 -29 0 -43 7 -66
32 -27 30 -29 37 -22 84 l6 51 -166 161 -167 162 3 344 2 343 -382 380 c-331
330 -381 384 -381 410 0 27 33 -4 333 -310 183 -187 359 -368 391 -402z m-172
-506 c2 -141 0 -257 -3 -257 -4 0 -14 11 -23 25 -13 20 -16 59 -16 246 l0 221
-209 217 c-181 188 -218 233 -212 261 0 4 104 -98 231 -225 l229 -230 3 -258z
m-4825 511 c-40 -91 -87 -271 -87 -331 0 -47 33 -147 68 -207 41 -72 83 -162
78 -168 -10 -9 -83 46 -118 90 -46 57 -114 177 -121 214 -15 78 38 237 140
421 49 88 59 101 67 84 7 -15 -1 -42 -27 -103z m-537 72 c-16 -31 -23 -18 -8
15 7 15 14 23 16 17 2 -6 -2 -21 -8 -32z m-767 -21 c30 -16 37 -28 37 -69 0
-33 13 -49 144 -178 124 -123 147 -142 168 -137 56 14 101 -63 61 -107 -37
-41 -113 -7 -113 49 0 39 -282 323 -320 323 -31 0 -44 8 -59 37 -16 31 -14 41
14 68 27 28 37 30 68 14z m-173 -29 c14 -14 20 -33 20 -66 l0 -45 276 -272
c271 -267 276 -271 314 -268 30 2 41 -2 54 -21 9 -12 16 -32 16 -44 0 -24 -43
-64 -67 -64 -22 0 -63 47 -63 73 0 18 -63 86 -252 273 -304 299 -309 304 -354
304 -45 0 -74 29 -74 75 0 46 29 75 75 75 22 0 43 -8 55 -20z m-126 -238 c453
-444 956 -934 1009 -982 51 -47 70 -84 53 -101 -5 -5 -164 149 -666 645 -576
569 -605 596 -634 596 -16 0 -25 4 -21 10 3 6 22 10 42 10 33 0 50 -14 217
-178z m1089 -84 c-1 -52 -9 -114 -18 -142 -15 -46 -15 -50 3 -70 16 -18 19
-41 21 -186 l2 -165 72 -65 c152 -137 153 -139 137 -150 -8 -5 -18 -9 -22 -7
-15 5 -223 201 -230 216 -4 9 -7 151 -7 316 -1 257 1 304 15 323 8 12 18 22
22 22 4 0 6 -42 5 -92z m-603 -620 c335 -337 614 -625 621 -640 34 -82 22 -70
-1001 973 l-245 250 -132 -1 c-72 0 -134 4 -137 9 -10 16 15 19 152 20 l133 1
609 -612z m-546 284 c188 -180 931 -890 1050 -1003 209 -198 219 -209 236
-270 8 -28 -17 -6 -163 137 -94 94 -239 235 -322 315 -82 79 -217 209 -300
289 -288 279 -441 426 -516 498 l-76 72 -184 1 c-176 1 -253 9 -219 22 30 12
68 14 239 16 l173 1 82 -78z m-205 -163 c25 -23 116 -110 201 -193 212 -207
223 -216 270 -216 52 0 68 -8 85 -41 22 -42 18 -67 -14 -100 -35 -35 -77 -38
-115 -8 -21 17 -26 29 -26 67 l0 46 -222 223 -222 223 -131 0 c-142 0 -235 8
-235 21 0 13 38 16 204 18 l159 1 46 -41z m32 -389 c132 -120 216 -190 229
-190 24 0 61 -18 72 -34 25 -36 -11 -96 -57 -96 -37 0 -68 36 -62 70 7 30 -2
40 -228 245 -60 55 -126 115 -145 132 l-35 33 -172 0 c-94 0 -174 4 -177 9
-11 17 17 19 192 20 l174 1 209 -190z m1659 112 c0 -4 -20 -28 -45 -52 -25
-25 -64 -73 -87 -108 -40 -62 -41 -64 -28 -105 17 -59 38 -86 176 -228 122
-124 155 -172 134 -193 -11 -11 -99 27 -179 76 -29 18 -59 28 -83 28 -34 0
-38 -3 -38 -24 0 -14 11 -60 24 -103 13 -43 36 -148 51 -233 30 -178 29 -184
-44 -308 -39 -64 -67 -102 -240 -326 l-74 -96 23 -78 c23 -78 134 -394 165
-467 9 -22 60 -127 112 -233 l96 -193 92 -82 c50 -45 129 -111 174 -146 l83
-64 -7 94 c-14 195 -11 256 23 364 17 55 38 128 47 163 27 106 114 371 158
477 48 118 119 229 179 278 70 58 130 79 239 84 l96 6 42 -38 c23 -21 59 -68
80 -104 36 -63 70 -166 58 -178 -3 -3 0 -22 8 -42 8 -20 23 -85 34 -146 11
-60 40 -211 66 -335 90 -435 94 -466 94 -605 0 -71 -4 -182 -9 -245 -5 -63
-14 -207 -20 -320 -6 -113 -13 -224 -16 -248 l-5 -42 -61 0 -61 0 6 83 c49
636 45 864 -23 1192 -38 184 -163 643 -207 760 l-19 50 -48 -1 c-37 0 -70 -12
-154 -56 l-107 -55 -38 -89 c-85 -196 -145 -393 -198 -652 -55 -270 -54 -253
-29 -431 12 -88 20 -167 16 -176 -5 -14 -25 -7 -123 45 -180 95 -393 247 -478
342 -85 94 -226 402 -310 678 -26 85 -61 190 -76 233 -16 43 -29 85 -29 93 0
8 31 53 70 101 38 47 113 149 166 227 54 77 123 175 154 216 109 144 109 132
-13 461 -72 190 -124 381 -134 482 l-6 64 71 57 c67 54 226 156 244 156 4 0 8
-4 8 -8z m-1888 -177 c72 -66 111 -94 128 -95 65 -1 98 -80 48 -114 -32 -23
-55 -20 -84 10 -20 20 -24 31 -19 52 6 24 -2 36 -92 119 l-98 93 -157 0 c-86
0 -159 4 -162 9 -10 16 16 19 176 20 l156 1 104 -95z m7011 -222 c25 -20 40
-23 114 -23 l85 0 108 -105 c100 -97 111 -105 147 -105 46 0 57 -8 42 -27 -7
-8 -32 -13 -63 -13 l-52 0 -99 100 -98 100 -87 0 c-79 0 -90 2 -123 28 -37 28
-50 53 -40 78 6 16 5 16 66 -33z m-5891 -121 c25 -10 608 -583 608 -597 0 -7
-6 -18 -13 -24 -11 -8 -75 52 -305 284 l-292 295 -372 1 c-630 3 -1001 12
-1005 26 -4 10 134 13 654 16 362 1 669 3 683 4 14 1 33 -1 42 -5z m5987 -122
c44 0 71 -25 71 -63 0 -39 -26 -67 -62 -67 -32 0 -68 31 -68 58 0 10 -23 42
-50 71 -50 53 -68 90 -55 111 5 8 29 -9 69 -49 51 -51 67 -61 95 -61z m-1459
-200 c0 -16 -4 -30 -10 -30 -5 0 -10 -8 -10 -18 0 -38 -97 -113 -450 -351
-113 -76 -237 -161 -277 -188 l-72 -50 51 -49 c86 -84 430 -553 588 -804 52
-82 116 -184 143 -226 100 -158 126 -256 152 -560 4 -45 11 -87 15 -94 6 -9
54 23 166 110 88 68 168 130 178 139 17 14 17 11 -4 -24 -13 -22 -32 -49 -42
-61 -10 -11 -18 -28 -18 -37 0 -9 -4 -18 -9 -21 -5 -3 -19 -27 -31 -53 -38
-82 -101 -166 -159 -214 -61 -51 -188 -139 -199 -139 -4 0 -8 137 -9 304 l-1
304 -61 118 c-59 117 -292 483 -420 659 -150 209 -385 486 -431 510 -66 34
-90 17 -160 -110 -18 -33 -53 -96 -78 -139 -27 -46 -70 -149 -103 -245 -31
-91 -102 -285 -157 -431 -156 -411 -161 -439 -162 -885 -1 -173 -3 -322 -6
-330 -5 -11 -23 -15 -73 -15 l-67 0 -12 153 c-34 436 -10 613 171 1242 112
388 208 663 278 795 38 72 144 152 429 325 208 126 807 444 838 445 7 0 12
-13 12 -30z m-4328 -237 c136 -136 248 -252 248 -258 0 -6 -6 -17 -12 -24 -11
-10 -61 37 -258 238 l-245 251 -542 0 c-328 0 -552 4 -567 10 -72 27 -14 30
551 30 l576 0 249 -247z m5965 119 c32 -5 40 -10 34 -21 -6 -9 -47 -15 -137
-21 -133 -8 -145 -6 -165 32 -9 17 -3 18 108 17 65 0 137 -4 160 -7z m-6139
-124 c47 -46 109 -105 138 -133 232 -224 223 -214 205 -236 -16 -20 -18 -19
-93 58 -42 43 -138 139 -212 213 l-136 135 -512 5 c-378 4 -512 8 -515 17 -2
6 6 13 19 16 13 2 247 5 522 6 l498 1 86 -82z m6091 -34 c2 -2 -2 -10 -9 -19
-19 -23 -87 -20 -100 4 -5 11 -10 21 -10 24 0 4 113 -4 119 -9z m-6067 -291
c112 -112 197 -204 196 -213 -8 -40 -43 -13 -209 160 -96 100 -186 188 -201
196 -22 11 -100 14 -416 14 -331 0 -391 2 -395 14 -8 21 16 22 447 24 l380 2
198 -197z m-159 -251 c181 -180 188 -189 171 -206 -16 -17 -25 -10 -193 162
l-176 181 -253 4 c-206 3 -255 6 -263 18 -13 21 40 26 300 27 l225 2 189 -188z
m-351 -70 c20 -15 91 -81 159 -145 99 -94 121 -120 109 -127 -8 -5 -19 -10
-24 -10 -8 0 -83 70 -221 206 l-52 51 -94 7 c-108 8 -149 27 -78 37 24 3 72 7
105 7 53 2 66 -2 96 -26z m648 -98 c13 -33 -20 -82 -126 -185 -114 -110 -248
-170 -414 -185 l-65 -6 -27 46 c-26 44 -27 46 -8 56 10 6 72 19 137 30 150 26
239 48 283 70 34 17 116 96 175 168 15 17 29 32 31 32 3 0 9 -12 14 -26z
m2659 -825 c-18 -63 -32 -86 -89 -154 -101 -121 -260 -295 -268 -294 -4 0 -31
28 -61 62 -29 34 -85 97 -122 140 -62 69 -69 81 -69 120 0 23 -5 60 -10 82
l-9 40 57 -60 c32 -33 93 -100 138 -149 l80 -88 83 95 c77 90 281 291 287 284
2 -2 -6 -37 -17 -78z m-472 -697 c61 -57 114 -104 118 -104 4 0 59 49 123 108
l117 107 3 -67 c2 -45 -1 -73 -10 -83 -7 -9 -64 -60 -127 -114 l-114 -98 -128
122 c-71 67 -130 127 -132 132 -2 6 -1 36 1 68 5 68 -9 75 149 -71z"/>
<path d="M2186 4859 c-17 -25 -12 -45 15 -60 14 -7 23 -5 39 11 24 24 25 34 4
54 -21 22 -40 20 -58 -5z"/>
<path d="M1461 4111 c-25 -25 -26 -35 -5 -55 20 -20 38 -20 59 0 20 21 16 43
-12 61 -19 13 -24 12 -42 -6z"/>
<path d="M8112 3768 c-17 -17 -15 -47 3 -55 9 -3 25 3 35 12 19 17 19 19 4 37
-20 21 -26 22 -42 6z"/>
</g>
</svg>
